<svg width="294" height="224" viewBox="0 0 294 224" fill="none" xmlns="http://www.w3.org/2000/svg">
<g clip-path="url(#clip0_1145_25185)">
<rect x="126" width="168" height="224" fill="white"/>
<rect x="2.43188" y="17.5352" width="162.33" height="197.912" transform="rotate(-3 2.43188 17.5352)" fill="#1868DB"/>
<g style="mix-blend-mode:multiply">
<rect x="126" width="168" height="224" fill="#FCA700"/>
</g>
<rect width="246" height="176" transform="translate(24 24)" fill="white"/>
<rect width="178" height="116" transform="translate(76 64)" fill="#F1F2F4"/>
<rect width="170" height="24" transform="translate(80 68)" fill="white"/>
<rect x="88" y="76" width="8" height="8" fill="#1868DB"/>
<rect x="108" y="78" width="40" height="4" fill="#DCDFE4"/>
<rect x="172" y="76" width="8" height="8" fill="#DCDFE4"/>
<circle cx="200" cy="80" r="6" fill="#DCDFE4"/>
<rect x="218" y="76" width="24" height="8" fill="#CCE0FF"/>
<rect width="170" height="24" transform="translate(80 96)" fill="white"/>
<rect x="88" y="104" width="8" height="8" fill="#1868DB"/>
<rect x="108" y="106" width="24" height="4" fill="#DCDFE4"/>
<rect x="172" y="104" width="8" height="8" fill="#DCDFE4"/>
<circle cx="200" cy="108" r="6" fill="#DCDFE4"/>
<rect x="218" y="104" width="24" height="8" fill="#CCE0FF"/>
<rect width="170" height="24" transform="translate(80 124)" fill="white"/>
<rect x="88" y="132" width="8" height="8" fill="#FCA700"/>
<path d="M108.574 137.633C108.859 137.782 109.166 137.766 109.456 137.71C110.042 137.584 110.611 137.313 111.246 137.039C111.404 136.897 111.432 136.913 111.381 136.772C111.415 136.719 111.473 136.626 111.432 136.578C111.292 136.246 111.7 136.121 111.855 136C111.904 136.307 112.156 136.291 112.504 136.145C112.604 136.105 112.642 136.085 112.737 136.072C112.84 136.052 112.949 136.028 113.064 136.004C113.288 135.971 113.538 135.923 113.768 135.959C114 135.988 114.222 136.08 114.394 136.291C114.569 136.497 114.695 136.804 114.793 137.099C114.891 137.398 114.963 137.677 115.04 137.904C115.112 138.13 115.187 138.28 115.224 138.369C115.175 138.49 115.187 138.676 115.296 138.805C115.342 138.886 115.419 138.918 115.497 138.963C115.58 138.991 115.672 139.003 115.764 138.999C115.954 138.979 116.135 138.89 116.29 138.821C116.428 138.74 116.557 138.692 116.654 138.696C116.643 138.736 116.519 138.93 116.505 138.963C116.611 139.015 116.99 138.801 117.421 138.425C117.852 138.045 118.352 137.524 118.786 137.022C119.662 136.032 120.34 135.203 119.912 136.093C120.242 135.842 120.59 135.571 120.937 135.264C121.023 135.187 121.112 135.11 121.201 135.033L121.262 134.981L121.29 134.961C121.308 134.949 121.328 134.932 121.345 134.928H121.405C121.405 134.928 121.42 134.936 121.437 134.936L121.509 134.928C121.603 134.912 121.693 134.928 121.787 134.928C122.152 134.953 122.482 135.05 122.715 135.292C122.956 135.519 123.152 135.907 123.39 136.489C123.511 136.776 123.643 137.107 123.841 137.463C124.036 137.815 124.344 138.215 124.737 138.413C124.835 138.453 124.933 138.502 125.03 138.53C125.125 138.55 125.223 138.567 125.32 138.579C125.498 138.579 125.688 138.579 125.846 138.53C125.926 138.51 126.013 138.494 126.09 138.466L126.314 138.377C126.469 138.32 126.599 138.239 126.739 138.166C127.811 137.536 128.698 136.671 129.577 135.785L130.126 135.215L130.404 135.066C130.511 135.005 130.605 134.993 130.706 134.953C130.758 134.928 130.801 134.924 130.844 134.924L130.973 134.908C131.016 134.9 131.042 134.92 131.079 134.92C131.114 134.924 131.151 134.92 131.174 134.945C131.286 134.973 131.387 135.094 131.525 135.296C131.795 135.696 132.102 136.517 132.697 137.059C132.849 137.184 132.998 137.313 133.165 137.386C133.245 137.427 133.328 137.471 133.409 137.503L133.662 137.568L133.823 137.604C133.877 137.613 133.929 137.645 133.98 137.617L134.279 137.528L134.633 137.427C136.511 136.877 138.358 136.929 139.918 137.224L139.872 137.156C139.921 137.18 140.076 137.148 140.113 137.233C140.423 137.115 140.992 137.051 141.483 137.006C141.974 136.958 142.388 136.954 142.388 136.954L144.16 136.832C144.16 136.832 144.921 136.962 145.843 137.034C146.765 137.103 147.848 137.103 148.466 136.861C150.008 136.925 151.571 136.921 153.122 136.614C153.122 136.614 153.243 136.582 153.432 136.529C153.619 136.46 153.874 136.355 154.144 136.238C154.414 136.113 154.702 136.004 154.946 135.846C155.19 135.684 155.4 135.531 155.523 135.401C155.833 135.078 156 134.779 156 134.568C156 134.358 155.828 134.237 155.451 134.273C155.265 134.294 155.026 134.35 154.73 134.459C154.437 134.573 154.07 134.657 153.642 134.831C153.619 134.815 153.544 134.811 153.53 134.779C152.628 135.175 151.689 135.268 150.749 135.272C150.281 135.284 149.804 135.227 149.33 135.223C148.854 135.207 148.371 135.163 147.883 135.179C147.906 135.296 147.84 135.389 147.782 135.329L147.805 135.183C146.487 135.426 145.682 134.888 144.45 135.296C144.45 135.296 144.597 135.114 144.6 135.11C143.56 135.054 142.428 134.948 141.227 134.884C140.03 134.807 138.766 134.783 137.479 134.876C137.157 134.908 136.836 134.94 136.511 134.973C136.189 135.013 135.865 135.09 135.543 135.151L135.06 135.248L134.581 135.393L134.104 135.543L133.897 135.607C133.92 135.607 133.886 135.616 133.883 135.607C133.874 135.607 133.883 135.607 133.863 135.599L133.791 135.587C133.739 135.587 133.708 135.547 133.665 135.535C133.578 135.51 133.515 135.434 133.438 135.385C133.297 135.248 133.148 135.021 132.975 134.714C132.8 134.415 132.613 134.007 132.271 133.619C132.2 133.522 132.088 133.441 131.996 133.356C131.901 133.267 131.792 133.21 131.683 133.158C131.461 133.028 131.246 133.024 131.036 133C131.045 133.004 131.056 133.016 131.068 133.024L131.054 133.044C131.131 133.073 131.243 133.113 131.378 133.162C131.51 133.202 131.674 133.332 131.835 133.445C132.157 133.728 132.395 134.16 132.556 134.512C132.722 134.876 132.837 135.159 132.938 135.357C133.038 135.539 133.104 135.652 133.104 135.644C132.786 135.498 132.521 135.086 132.246 134.649C132.099 134.435 131.955 134.201 131.754 134.027C131.565 133.833 131.329 133.732 131.097 133.679C130.867 133.643 130.628 133.643 130.41 133.695C130.175 133.724 129.988 133.813 129.75 133.897L129.649 133.938C129.617 133.958 129.589 133.986 129.557 134.015L129.405 134.144L129.149 134.366C128.98 134.52 128.816 134.674 128.652 134.831L128.583 134.665C128.865 134.403 129.115 134.112 129.319 133.873L129.356 133.829L129.422 133.756C129.465 133.711 129.5 133.655 129.546 133.627C129.632 133.574 129.718 133.517 129.764 133.485C129.867 133.412 129.953 133.348 130.017 133.295C129.93 133.331 129.844 133.364 129.752 133.4C129.698 133.424 129.643 133.449 129.589 133.473L129.485 133.522C129.451 133.546 129.422 133.578 129.39 133.606C129.232 133.752 129.069 133.901 128.896 134.059C128.586 134.342 128.25 134.641 127.897 134.936C127.546 135.232 127.176 135.539 126.802 135.793C126.435 136.052 126.044 136.295 125.72 136.384C125.567 136.42 125.421 136.448 125.343 136.42C125.263 136.396 125.223 136.376 125.142 136.283C125.065 136.194 124.964 136.016 124.855 135.785C124.746 135.559 124.634 135.296 124.496 135.017C124.235 134.467 123.838 133.873 123.373 133.546C122.908 133.21 122.445 133.141 122.089 133.162C122.106 133.198 122.175 133.214 122.273 133.218C122.37 133.23 122.503 133.255 122.638 133.287C122.773 133.331 122.913 133.404 123.02 133.501C123.126 133.61 123.201 133.736 123.212 133.877C122.876 133.618 122.503 133.53 122.161 133.505L121.905 133.497L121.661 133.526C121.581 133.534 121.497 133.538 121.423 133.558C121.331 133.578 121.239 133.594 121.15 133.614C121.135 133.538 121.158 133.485 121.204 133.441C121.227 133.42 121.256 133.4 121.288 133.384C121.313 133.368 121.333 133.36 121.359 133.348C121.457 133.303 121.572 133.307 121.606 133.279C121.572 133.275 121.512 133.259 121.437 133.267C121.4 133.267 121.356 133.271 121.311 133.275C121.242 133.283 121.167 133.295 121.086 133.303C121.043 133.307 121 133.315 120.951 133.323L120.88 133.332C120.857 133.344 120.839 133.368 120.819 133.384C120.739 133.465 120.653 133.55 120.561 133.643C120.452 133.748 120.328 133.865 120.196 133.994C119.676 134.5 118.984 135.179 118.183 135.915C117.783 136.287 117.352 136.65 116.91 136.998C116.801 137.079 116.689 137.156 116.577 137.237C116.468 137.305 116.359 137.374 116.247 137.443L116.091 137.516L116.014 137.556L115.985 137.564C115.942 137.58 115.928 137.58 115.908 137.576C115.865 137.576 115.839 137.52 115.827 137.467L115.741 137.063C115.701 136.865 115.649 136.626 115.58 136.38C115.511 136.129 115.411 135.858 115.279 135.591C115.201 135.462 115.126 135.329 115.037 135.211C114.942 135.102 114.851 134.977 114.744 134.896C114.322 134.528 113.874 134.431 113.515 134.431C113.136 134.419 112.826 134.492 112.492 134.581C112.441 134.601 112.375 134.597 112.314 134.637L112.151 134.734L111.938 134.872C111.803 134.965 111.674 135.054 111.553 135.147C111.065 135.51 110.628 135.854 110.223 136.129C109.821 136.404 109.448 136.614 109.16 136.703C109.02 136.747 108.902 136.756 108.833 136.747C108.767 136.743 108.727 136.727 108.678 136.695C108.597 136.638 108.5 136.428 108.442 136.242C108.376 136.06 108.339 135.907 108.29 135.858C108.244 135.806 108.204 135.846 108.167 136C108.129 136.157 108.095 136.428 108.149 136.816C108.101 136.792 108.046 136.764 108 136.727C108.086 137.14 108.293 137.507 108.58 137.649L108.574 137.633Z" fill="#172B4D"/>
<path fill-rule="evenodd" clip-rule="evenodd" d="M176 130.75C176.23 130.75 176.437 130.89 176.522 131.104L178.172 135.229L180.131 140.125H181.25V141.25H170.75V140.125H171.869L175.478 131.104C175.563 130.89 175.77 130.75 176 130.75ZM173.081 140.125H178.919L178.319 138.625H173.681L173.081 140.125ZM174.131 137.5H177.869L177.269 136H174.731L174.131 137.5ZM175.181 134.875H176.819L176 132.827L175.181 134.875Z" fill="#FCA700"/>
<circle cx="200" cy="136" r="6" fill="#DCDFE4"/>
<rect x="218" y="132" width="24" height="8" fill="#DCDFE4"/>
<rect width="170" height="24" transform="translate(80 152)" fill="white"/>
<rect x="88" y="160" width="8" height="8" fill="#82B536"/>
<rect x="108" y="162" width="24" height="4" fill="#DCDFE4"/>
<rect x="172" y="160" width="8" height="8" fill="#DCDFE4"/>
<circle cx="200" cy="164" r="6" fill="#DCDFE4"/>
<rect x="218" y="160" width="24" height="8" fill="#DCDFE4"/>
<rect width="36" height="176" transform="translate(24 24)" fill="#F1F2F4"/>
<path fill-rule="evenodd" clip-rule="evenodd" d="M36.75 42.25C36.75 41.4216 37.4216 40.75 38.25 40.75H44.25C45.0784 40.75 45.75 41.4216 45.75 42.25V48.25C45.75 49.0784 45.0784 49.75 44.25 49.75H38.25C37.4216 49.75 36.75 49.0784 36.75 48.25V42.25ZM38.25 41.875C38.0429 41.875 37.875 42.0429 37.875 42.25V48.25C37.875 48.4571 38.0429 48.625 38.25 48.625H44.25C44.4571 48.625 44.625 48.4571 44.625 48.25V42.25C44.625 42.0429 44.4571 41.875 44.25 41.875H38.25ZM43.0697 43.0127L43.9303 43.7373L40.9303 47.2998C40.8234 47.4267 40.6659 47.5 40.5 47.5C40.3341 47.5 40.1766 47.4267 40.0697 47.2998L38.5697 45.5186L39.4303 44.7939L40.5 46.0642L43.0697 43.0127Z" fill="#0C66E4"/>
<path fill-rule="evenodd" clip-rule="evenodd" d="M48 44.5V49.5625C48 50.9087 46.9087 52 45.5625 52H40.5V50.875H45.5625C46.2874 50.875 46.875 50.2874 46.875 49.5625V44.5H48Z" fill="#0C66E4"/>
<path fill-rule="evenodd" clip-rule="evenodd" d="M42 68.75C42.23 68.75 42.4368 68.89 42.5223 69.1036L44.1723 73.2286L46.1308 78.125H47.25V79.25H36.75V78.125H37.8692L41.4777 69.1036C41.5632 68.89 41.77 68.75 42 68.75ZM39.0808 78.125H44.9192L44.3192 76.625H39.6808L39.0808 78.125ZM40.1308 75.5H43.8692L43.2692 74H40.7308L40.1308 75.5ZM41.1808 72.875H42.8192L42 70.8271L41.1808 72.875Z" fill="#626F86"/>
<path fill-rule="evenodd" clip-rule="evenodd" d="M47.0852 99.165L44.6477 96.7275L43.8523 97.523L45.3295 99.0003H37.5V100.125H45.3295L43.8523 101.603L44.6477 102.398L47.0852 99.9605C47.3049 99.7409 47.3049 99.3847 47.0852 99.165ZM38.6705 103.875L40.1477 102.398L39.3523 101.603L36.9148 104.04C36.6951 104.26 36.6951 104.616 36.9148 104.836L39.3523 107.273L40.1477 106.478L38.6705 105H46.5V103.875H38.6705Z" fill="#626F86"/>
<path fill-rule="evenodd" clip-rule="evenodd" d="M42.5625 124V126.25H41.4375V124H42.5625ZM37.5926 124.797L39.1287 126.333L38.3332 127.129L36.7971 125.593L37.5926 124.797ZM47.2029 125.593L45.6668 127.129L44.8713 126.333L46.4074 124.797L47.2029 125.593ZM39.1465 128.407C39.1951 127.823 39.6825 127.375 40.2676 127.375H43.7324C44.3175 127.375 44.805 127.823 44.8535 128.407L45.3301 134.125H46.5V135.25H37.5V134.125H38.6699L39.1465 128.407ZM39.7988 134.125H44.2012L43.7324 128.5L40.2676 128.5L39.7988 134.125Z" fill="#626F86"/>
<path fill-rule="evenodd" clip-rule="evenodd" d="M36 154.062C36 153.752 36.2518 153.5 36.5625 153.5H39.1875C39.4386 153.5 39.6594 153.666 39.7284 153.908L40.3442 156.063C40.4869 156.563 40.3216 157.1 39.9224 157.432L38.4673 158.645C39.1986 159.808 40.1921 160.801 41.3552 161.533L42.5677 160.078C42.9003 159.678 43.4371 159.513 43.9366 159.656L46.092 160.272C46.3335 160.341 46.5 160.561 46.5 160.812V163.438C46.5 163.748 46.2482 164 45.9375 164C44.238 164 42.6211 163.543 41.206 162.752C39.5536 161.828 38.1719 160.446 37.2481 158.794C36.457 157.379 36 155.762 36 154.062ZM42.3633 162.08C43.3006 162.514 44.3173 162.785 45.375 162.856V161.237L43.6275 160.738C43.5562 160.717 43.4795 160.741 43.432 160.798L42.3633 162.08ZM37.9198 157.637L39.2022 156.568C39.2592 156.521 39.2829 156.444 39.2625 156.372L38.7632 154.625H37.144C37.2154 155.683 37.4864 156.699 37.9198 157.637Z" fill="#626F86"/>
<path d="M48 152.75C48 153.164 47.6642 153.5 47.25 153.5C46.8358 153.5 46.5 153.164 46.5 152.75C46.5 152.336 46.8358 152 47.25 152C47.6642 152 48 152.336 48 152.75Z" fill="#626F86"/>
<path d="M46.125 154.625C46.125 155.039 45.7892 155.375 45.375 155.375C44.9608 155.375 44.625 155.039 44.625 154.625C44.625 154.211 44.9608 153.875 45.375 153.875C45.7892 153.875 46.125 154.211 46.125 154.625Z" fill="#626F86"/>
<path d="M44.25 156.5C44.25 156.914 43.9142 157.25 43.5 157.25C43.0858 157.25 42.75 156.914 42.75 156.5C42.75 156.086 43.0858 155.75 43.5 155.75C43.9142 155.75 44.25 156.086 44.25 156.5Z" fill="#626F86"/>
<path d="M80.7227 52.2168C79.8867 52.2168 79.1641 52.0371 78.5547 51.6777C77.9453 51.3145 77.4746 50.8008 77.1426 50.1367C76.8145 49.4727 76.6504 48.6855 76.6504 47.7754V47.7637C76.6504 46.8496 76.8164 46.0625 77.1484 45.4023C77.4844 44.7383 77.957 44.2266 78.5664 43.8672C79.1758 43.5078 79.8945 43.3281 80.7227 43.3281C81.5547 43.3281 82.2734 43.5078 82.8789 43.8672C83.4883 44.2266 83.959 44.7383 84.291 45.4023C84.623 46.0664 84.7891 46.8535 84.7891 47.7637V47.7754C84.7891 48.6855 84.623 49.4727 84.291 50.1367C83.9629 50.8008 83.4941 51.3145 82.8848 51.6777C82.2754 52.0371 81.5547 52.2168 80.7227 52.2168ZM80.7227 50.7168C81.1797 50.7168 81.5781 50.5957 81.918 50.3535C82.2578 50.1113 82.5195 49.7695 82.7031 49.3281C82.8906 48.8867 82.9844 48.3691 82.9844 47.7754V47.7637C82.9844 47.166 82.8906 46.6484 82.7031 46.2109C82.5195 45.7695 82.2578 45.4297 81.918 45.1914C81.5781 44.9492 81.1797 44.8281 80.7227 44.8281C80.2656 44.8281 79.8672 44.9492 79.5273 45.1914C79.1875 45.4297 78.9238 45.7695 78.7363 46.2109C78.5488 46.6484 78.4551 47.166 78.4551 47.7637V47.7754C78.4551 48.3691 78.5469 48.8867 78.7305 49.3281C78.918 49.7695 79.1797 50.1113 79.5156 50.3535C79.8555 50.5957 80.2578 50.7168 80.7227 50.7168ZM86.3008 54.1387V45.5488H88.0117V46.5449H88.1172C88.2305 46.3145 88.3789 46.1172 88.5625 45.9531C88.75 45.7891 88.9688 45.6641 89.2188 45.5781C89.4688 45.4883 89.7461 45.4434 90.0508 45.4434C90.5898 45.4434 91.0547 45.5781 91.4453 45.8477C91.8359 46.1172 92.1367 46.5 92.3477 46.9961C92.5625 47.4883 92.6699 48.0781 92.6699 48.7656V48.7773C92.6699 49.4688 92.5645 50.0625 92.3535 50.5586C92.1426 51.0547 91.8418 51.4355 91.4512 51.7012C91.0605 51.9668 90.5938 52.0996 90.0508 52.0996C89.7539 52.0996 89.4785 52.0547 89.2246 51.9648C88.9746 51.8711 88.7539 51.7402 88.5625 51.5723C88.375 51.4043 88.2266 51.2031 88.1172 50.9688H88.0117V54.1387H86.3008ZM89.4648 50.6816C89.7695 50.6816 90.0293 50.6055 90.2441 50.4531C90.4629 50.3008 90.6309 50.082 90.748 49.7969C90.8691 49.5117 90.9297 49.1719 90.9297 48.7773V48.7656C90.9297 48.3711 90.8691 48.0312 90.748 47.7461C90.6309 47.4609 90.4629 47.2422 90.2441 47.0898C90.0293 46.9375 89.7695 46.8613 89.4648 46.8613C89.1641 46.8613 88.9023 46.9375 88.6797 47.0898C88.4609 47.2422 88.291 47.4609 88.1699 47.7461C88.0527 48.0273 87.9941 48.3672 87.9941 48.7656V48.7773C87.9941 49.168 88.0547 49.5078 88.1758 49.7969C88.2969 50.082 88.4668 50.3008 88.6855 50.4531C88.9082 50.6055 89.168 50.6816 89.4648 50.6816ZM96.9062 52.1348C96.2539 52.1348 95.6914 52 95.2188 51.7305C94.75 51.457 94.3887 51.0703 94.1348 50.5703C93.8809 50.0703 93.7539 49.4746 93.7539 48.7832V48.7773C93.7539 48.0938 93.8789 47.5 94.1289 46.9961C94.3828 46.4922 94.7402 46.1016 95.2012 45.8242C95.666 45.5469 96.2109 45.4082 96.8359 45.4082C97.4648 45.4082 98.0078 45.543 98.4648 45.8125C98.9219 46.082 99.2734 46.459 99.5195 46.9434C99.7656 47.4277 99.8887 47.9961 99.8887 48.6484V49.1816H94.6094V48.1094H99.0684L98.2656 49.123V48.4375C98.2656 48.0508 98.2051 47.7285 98.084 47.4707C97.9668 47.2129 97.8027 47.0195 97.5918 46.8906C97.3848 46.7578 97.1426 46.6914 96.8652 46.6914C96.5918 46.6914 96.3477 46.7598 96.1328 46.8965C95.9219 47.0293 95.7539 47.2266 95.6289 47.4883C95.5078 47.7461 95.4473 48.0625 95.4473 48.4375V49.1289C95.4473 49.4922 95.5078 49.8027 95.6289 50.0605C95.75 50.3184 95.9219 50.5156 96.1445 50.6523C96.3672 50.7891 96.6328 50.8574 96.9414 50.8574C97.1914 50.8574 97.4043 50.8203 97.5801 50.7461C97.7559 50.6719 97.8965 50.5859 98.002 50.4883C98.1113 50.3867 98.1855 50.2949 98.2246 50.2129L98.2422 50.1777H99.8359L99.8242 50.2363C99.7734 50.4395 99.6816 50.6523 99.5488 50.875C99.416 51.0938 99.2324 51.2988 98.998 51.4902C98.7676 51.6816 98.4785 51.8379 98.1309 51.959C97.7871 52.0762 97.3789 52.1348 96.9062 52.1348ZM101.289 52V45.5488H103V46.5449H103.105C103.254 46.1934 103.484 45.916 103.797 45.7129C104.109 45.5098 104.496 45.4082 104.957 45.4082C105.676 45.4082 106.223 45.6191 106.598 46.041C106.977 46.459 107.166 47.0547 107.166 47.8281V52H105.455V48.2148C105.455 47.7578 105.359 47.4121 105.168 47.1777C104.977 46.9434 104.678 46.8262 104.271 46.8262C104.01 46.8262 103.783 46.8867 103.592 47.0078C103.404 47.125 103.258 47.291 103.152 47.5059C103.051 47.7207 103 47.9746 103 48.2676V52H101.289Z" fill="#172B4D"/>
<rect x="202" y="42" width="12" height="12" fill="#F1F2F4"/>
<rect x="222" y="42" width="12" height="12" fill="#F1F2F4"/>
<rect x="242" y="42" width="12" height="12" fill="#F1F2F4"/>
<path d="M168.721 125.017C168.454 125.178 163.264 118.902 162.029 115.811C160.757 115.811 159.068 114.88 158.168 113.384C152.463 112.85 159.565 118.747 161.824 120.547C161.489 118.617 163.457 122.813 164.338 123.105C164.096 122.794 169.006 128.952 169.099 126.363C169.391 126.469 168.926 124.632 168.727 125.017H168.721Z" fill="#101214"/>
<path d="M179.336 108.895C178.15 107.598 178.007 105.978 178.299 104.177C174.45 99.5404 175.543 109.926 175.841 112.44C175.841 112.44 176.269 116.866 175.984 116.462C175.481 117.126 174.736 124.085 177.144 122.465C177.387 121.304 176.89 119.107 177.672 118.66C179.156 117.25 178.156 111.446 179.329 108.889L179.336 108.895Z" fill="#101214"/>
<path d="M199.951 114.625C198.759 110.969 194.109 117.058 191.769 118.635C191.769 118.635 189.255 120.137 188.839 120.981C189.206 120.764 180.608 126.605 186.344 125.463C186.443 125.345 189.423 123.328 189.423 123.328C194.06 121.85 197.536 118.076 199.951 114.619V114.625Z" fill="#101214"/>
<path d="M289.847 124.563C287.484 126.211 283.721 128.039 280.454 129.449C279.419 128.563 272.869 132.304 274.983 128.351C275.761 126.569 272.75 121.384 274.365 125.385C275.15 129.081 272.906 121.384 270.439 122.486C270.778 121.932 272.27 122.668 272.713 122.825C266.673 119.159 264.916 128.794 270.35 130.621C267.666 133.692 258.894 135.486 253.48 134.663C243.666 135.359 257.484 136.93 259.843 136.349C264.399 135.672 268.79 134.86 272.858 131.712C277.019 131.913 291.648 127.451 289.847 124.559V124.563ZM272.992 128.649C271.302 131.991 266.338 123.774 270.819 123.911C272.72 124.094 273.74 127.015 272.992 128.649Z" fill="#101214"/>
</g>
<defs>
<clipPath id="clip0_1145_25185">
<rect width="294" height="224" fill="white"/>
</clipPath>
</defs>
</svg>
