<svg width="294" height="224" viewBox="0 0 294 224" fill="none" xmlns="http://www.w3.org/2000/svg">
<path d="M5.1873 215.651L12.9668 0.124023L170.745 8.39281L159.459 223.736L5.1873 215.651Z" fill="white"/>
<path d="M142.911 208L139.667 16L285.667 16L285.667 208L142.911 208Z" fill="#82B536"/>
<g style="mix-blend-mode:multiply">
<path d="M5.1873 215.651L12.9668 0.124023L170.745 8.39281L159.459 223.736L5.1873 215.651Z" fill="#1868DB"/>
</g>
<rect width="246" height="176" transform="translate(23.667 24)" fill="white"/>
<rect width="214" height="112" transform="translate(40 64)" fill="#F1F2F4"/>
<rect x="44" y="72" width="32" height="8" fill="#DCDFE4"/>
<path d="M88.4492 75.0625C88.4492 73.9844 89.2656 73.25 90.4492 73.25C91.6133 73.25 92.3984 73.9102 92.3984 74.8867C92.3984 75.5039 92.0742 76.0312 91.1211 76.9453L90.0195 77.9961V78.0664H92.4844V79H88.5117V78.2227L90.3477 76.4062C91.1172 75.6367 91.3164 75.3398 91.3164 74.9609C91.3164 74.4727 90.9609 74.1523 90.4141 74.1523C89.8555 74.1523 89.4805 74.5195 89.4805 75.0586V75.0859H88.4492V75.0625ZM98.2617 77.4219H99.3086C99.3594 77.9102 99.7578 78.1914 100.398 78.1914C101.008 78.1914 101.395 77.8984 101.395 77.4414C101.395 77.0586 101.145 76.8555 100.492 76.7109L99.9062 76.5742C98.8867 76.3438 98.3867 75.8047 98.3867 74.9688C98.3867 73.918 99.1641 73.25 100.383 73.25C101.562 73.25 102.355 73.9102 102.391 74.918H101.344C101.301 74.4531 100.945 74.168 100.395 74.168C99.8359 74.168 99.4883 74.4297 99.4883 74.8516C99.4883 75.25 99.7383 75.4688 100.348 75.6016L100.926 75.7344C102.016 75.9766 102.492 76.4648 102.492 77.3281C102.492 78.4414 101.695 79.1133 100.379 79.1133C99.1016 79.1133 98.3008 78.4766 98.2617 77.4219ZM106.242 77.7891H107.25C107.16 78.5508 106.398 79.0938 105.398 79.0938C104.145 79.0938 103.426 78.3906 103.426 77.168V76.4766C103.426 75.3477 104.207 74.6016 105.379 74.6016C106.52 74.6016 107.25 75.3516 107.25 76.5078V77.1016H104.473V77.3359C104.473 77.8984 104.836 78.2656 105.395 78.2656C105.824 78.2656 106.164 78.0703 106.242 77.7891ZM105.359 75.4297C104.805 75.4297 104.473 75.8008 104.473 76.418H106.219C106.219 75.8008 105.898 75.4297 105.359 75.4297ZM110.734 74.625C111.723 74.625 112.305 75.3047 112.305 76.4766V77.2188C112.305 78.3945 111.723 79.0742 110.734 79.0742C110.113 79.0742 109.684 78.7852 109.539 78.2695H109.461V80.4336H108.348V74.6914H109.445V75.4336H109.527C109.68 74.9141 110.105 74.625 110.734 74.625ZM110.324 75.5547C109.77 75.5547 109.434 75.9141 109.434 76.5078V77.2227C109.434 77.8164 109.77 78.1758 110.324 78.1758C110.875 78.1758 111.215 77.8125 111.215 77.2227V76.5078C111.215 75.918 110.875 75.5547 110.324 75.5547ZM122.215 76.9766H118.074V76.0078H122.215V76.9766ZM132.223 79H128.176V78.0742H129.695V74.4648H129.625L128.172 75.4297V74.3828L129.695 73.3633H130.781V78.0742H132.223V79ZM134.949 79.1133C133.77 79.1133 132.949 78.418 132.918 77.3984H133.988C134.055 77.8516 134.449 78.1562 134.973 78.1562C135.578 78.1562 135.984 77.7461 135.984 77.1367C135.984 76.5234 135.574 76.1094 134.973 76.1094C134.566 76.1094 134.258 76.2812 134.055 76.6211H132.984L133.25 73.3633H136.695V74.2969H134.129L134.008 75.8008H134.078C134.32 75.4453 134.746 75.25 135.273 75.25C136.312 75.25 137.039 76.0117 137.039 77.1094C137.039 78.3125 136.199 79.1133 134.949 79.1133ZM142.77 77.4219H143.816C143.867 77.9102 144.266 78.1914 144.906 78.1914C145.516 78.1914 145.902 77.8984 145.902 77.4414C145.902 77.0586 145.652 76.8555 145 76.7109L144.414 76.5742C143.395 76.3438 142.895 75.8047 142.895 74.9688C142.895 73.918 143.672 73.25 144.891 73.25C146.07 73.25 146.863 73.9102 146.898 74.918H145.852C145.809 74.4531 145.453 74.168 144.902 74.168C144.344 74.168 143.996 74.4297 143.996 74.8516C143.996 75.25 144.246 75.4688 144.855 75.6016L145.434 75.7344C146.523 75.9766 147 76.4648 147 77.3281C147 78.4414 146.203 79.1133 144.887 79.1133C143.609 79.1133 142.809 78.4766 142.77 77.4219ZM150.75 77.7891H151.758C151.668 78.5508 150.906 79.0938 149.906 79.0938C148.652 79.0938 147.934 78.3906 147.934 77.168V76.4766C147.934 75.3477 148.715 74.6016 149.887 74.6016C151.027 74.6016 151.758 75.3516 151.758 76.5078V77.1016H148.98V77.3359C148.98 77.8984 149.344 78.2656 149.902 78.2656C150.332 78.2656 150.672 78.0703 150.75 77.7891ZM149.867 75.4297C149.312 75.4297 148.98 75.8008 148.98 76.418H150.727C150.727 75.8008 150.406 75.4297 149.867 75.4297ZM155.242 74.625C156.23 74.625 156.812 75.3047 156.812 76.4766V77.2188C156.812 78.3945 156.23 79.0742 155.242 79.0742C154.621 79.0742 154.191 78.7852 154.047 78.2695H153.969V80.4336H152.855V74.6914H153.953V75.4336H154.035C154.188 74.9141 154.613 74.625 155.242 74.625ZM154.832 75.5547C154.277 75.5547 153.941 75.9141 153.941 76.5078V77.2227C153.941 77.8164 154.277 78.1758 154.832 78.1758C155.383 78.1758 155.723 77.8125 155.723 77.2227V76.5078C155.723 75.918 155.383 75.5547 154.832 75.5547Z" fill="#626F86"/>
<rect x="214" y="72" width="8" height="8" fill="#DCDFE4"/>
<rect x="228" y="72" width="8" height="8" fill="#1868DB"/>
<rect x="242" y="72" width="8" height="8" fill="#82B536"/>
<rect width="206" height="24" transform="translate(44 92)" fill="white"/>
<rect x="52" y="100" width="8" height="8" fill="#1868DB"/>
<rect x="72" y="102" width="64" height="4" fill="#DCDFE4"/>
<rect x="158" y="100" width="24" height="8" fill="#BF63F3"/>
<rect x="194" y="100" width="24" height="8" fill="#D3F1A7"/>
<circle cx="236" cy="104" r="6" fill="#DCDFE4"/>
<rect width="206" height="24" transform="translate(44 120)" fill="white"/>
<rect x="52" y="128" width="8" height="8" fill="#82B536"/>
<rect x="72" y="130" width="40" height="4" fill="#DCDFE4"/>
<rect x="158" y="128" width="24" height="8" fill="#FCA700"/>
<rect x="194" y="128" width="24" height="8" fill="#CCE0FF"/>
<circle cx="236" cy="132" r="6" fill="#DCDFE4"/>
<rect width="206" height="24" transform="translate(44 148)" fill="white"/>
<rect x="52" y="156" width="8" height="8" fill="#1868DB"/>
<rect x="72" y="158" width="64" height="4" fill="#DCDFE4"/>
<rect x="158" y="156" width="24" height="8" fill="#FCA700"/>
<rect x="194" y="156" width="24" height="8" fill="#DCDFE4"/>
<circle cx="236" cy="160" r="6" fill="#DCDFE4"/>
<path d="M41.9102 52V50.6816H44.3711C44.8828 50.6816 45.2715 50.5762 45.5371 50.3652C45.8066 50.1543 45.9414 49.8477 45.9414 49.4453V49.4336C45.9414 49.1719 45.8789 48.9512 45.7539 48.7715C45.6328 48.5918 45.4512 48.457 45.209 48.3672C44.9707 48.2734 44.6777 48.2266 44.3301 48.2266H41.9102V47.0605H44.125C44.6016 47.0605 44.9668 46.9648 45.2207 46.7734C45.4746 46.582 45.6016 46.3125 45.6016 45.9648V45.9531C45.6016 45.6094 45.4844 45.3418 45.25 45.1504C45.0195 44.9551 44.6934 44.8574 44.2715 44.8574H41.9102V43.5449H44.7227C45.2734 43.5449 45.7422 43.6309 46.1289 43.8027C46.5195 43.9707 46.8184 44.2129 47.0254 44.5293C47.2363 44.8418 47.3418 45.2148 47.3418 45.6484V45.6602C47.3418 45.957 47.2734 46.2344 47.1367 46.4922C47.0039 46.75 46.8223 46.9648 46.5918 47.1367C46.3613 47.3086 46.1016 47.416 45.8125 47.459V47.5645C46.1875 47.5918 46.5195 47.6973 46.8086 47.8809C47.1016 48.0645 47.3301 48.3027 47.4941 48.5957C47.6621 48.8887 47.7461 49.2148 47.7461 49.5742V49.5859C47.7461 50.0781 47.627 50.5059 47.3887 50.8691C47.1543 51.2285 46.8184 51.5078 46.3809 51.707C45.9473 51.9023 45.4277 52 44.8223 52H41.9102ZM41.0254 52V43.5449H42.7949V52H41.0254ZM50.9336 52.0996C50.5273 52.0996 50.1641 52.0215 49.8438 51.8652C49.5273 51.7051 49.2793 51.4805 49.0996 51.1914C48.9199 50.8984 48.8301 50.5566 48.8301 50.166V50.1543C48.8301 49.7676 48.9258 49.4355 49.1172 49.1582C49.3125 48.8809 49.5957 48.6641 49.9668 48.5078C50.3418 48.3477 50.7969 48.252 51.332 48.2207L53.7344 48.0742V49.1172L51.5898 49.2578C51.2227 49.2773 50.9492 49.3555 50.7695 49.4922C50.5898 49.6289 50.5 49.8145 50.5 50.0488V50.0605C50.5 50.3066 50.5938 50.5 50.7812 50.6406C50.9688 50.7812 51.2109 50.8516 51.5078 50.8516C51.7734 50.8516 52.0098 50.7988 52.2168 50.6934C52.4238 50.5879 52.5879 50.4453 52.709 50.2656C52.8301 50.082 52.8906 49.877 52.8906 49.6504V47.5938C52.8906 47.3125 52.7969 47.0977 52.6094 46.9492C52.4258 46.7969 52.1582 46.7207 51.8066 46.7207C51.498 46.7207 51.2461 46.7734 51.0508 46.8789C50.8594 46.9805 50.7305 47.127 50.6641 47.3184L50.6523 47.3418H49.0703L49.0762 47.2891C49.123 46.9102 49.2656 46.5801 49.5039 46.2988C49.7461 46.0176 50.0703 45.7988 50.4766 45.6426C50.8867 45.4863 51.3613 45.4082 51.9004 45.4082C52.4707 45.4082 52.9551 45.4961 53.3535 45.6719C53.752 45.8438 54.0547 46.0938 54.2617 46.4219C54.4727 46.7461 54.5781 47.1367 54.5781 47.5938V52H52.8906V51.1445H52.7852C52.6758 51.3438 52.5293 51.5156 52.3457 51.6602C52.166 51.8008 51.9551 51.9102 51.7129 51.9883C51.4746 52.0625 51.2148 52.0996 50.9336 52.0996ZM59.0957 52.1348C58.4238 52.1348 57.8516 52.0039 57.3789 51.7422C56.9102 51.4766 56.5527 51.0938 56.3066 50.5938C56.0605 50.0898 55.9375 49.4805 55.9375 48.7656V48.7539C55.9375 48.043 56.0605 47.4395 56.3066 46.9434C56.5527 46.4473 56.9102 46.0684 57.3789 45.8066C57.8516 45.541 58.4238 45.4082 59.0957 45.4082C59.666 45.4082 60.1562 45.5059 60.5664 45.7012C60.9766 45.8965 61.3008 46.1719 61.5391 46.5273C61.7773 46.8828 61.9219 47.3008 61.9727 47.7812V47.7988H60.3848L60.3789 47.7871C60.3203 47.4746 60.1836 47.2246 59.9688 47.0371C59.7578 46.8457 59.4688 46.75 59.1016 46.75C58.7969 46.75 58.5371 46.8281 58.3223 46.9844C58.1113 47.1367 57.9512 47.3613 57.8418 47.6582C57.7324 47.9551 57.6777 48.3203 57.6777 48.7539V48.7656C57.6777 49.1992 57.7324 49.5684 57.8418 49.873C57.9551 50.1738 58.1172 50.4023 58.3281 50.5586C58.5391 50.7148 58.7969 50.793 59.1016 50.793C59.4531 50.793 59.7344 50.7109 59.9453 50.5469C60.1562 50.3828 60.2988 50.1367 60.373 49.8086L60.3848 49.791L61.9668 49.7852V49.8262C61.9043 50.291 61.7539 50.6973 61.5156 51.0449C61.2773 51.3926 60.9551 51.6621 60.5488 51.8535C60.1426 52.041 59.6582 52.1348 59.0957 52.1348ZM63.3672 52V43.082H65.0781V52H63.3672ZM67.4277 52L65.4473 49.1992L66.7246 48.1738L69.4492 52H67.4277ZM64.9609 49.9609L64.9023 48.0977H65.1836L67.3398 45.5488H69.2793L66.625 48.4785L65.7109 49.1641L64.9609 49.9609ZM70.5859 52V43.082H72.2969V52H70.5859ZM76.9316 52.1348C76.2715 52.1348 75.7031 52.002 75.2266 51.7363C74.75 51.4668 74.3848 51.082 74.1309 50.582C73.877 50.0781 73.75 49.4766 73.75 48.7773V48.7656C73.75 48.0703 73.8789 47.4727 74.1367 46.9727C74.3945 46.4727 74.7598 46.0879 75.2324 45.8184C75.709 45.5449 76.2754 45.4082 76.9316 45.4082C77.5879 45.4082 78.1523 45.543 78.625 45.8125C79.1016 46.082 79.4688 46.4688 79.7266 46.9727C79.9844 47.4727 80.1133 48.0703 80.1133 48.7656V48.7773C80.1133 49.4766 79.9863 50.0781 79.7324 50.582C79.4785 51.082 79.1133 51.4668 78.6367 51.7363C78.1641 52.002 77.5957 52.1348 76.9316 52.1348ZM76.9316 50.793C77.2363 50.793 77.4941 50.7129 77.7051 50.5527C77.916 50.3926 78.0781 50.1621 78.1914 49.8613C78.3047 49.5605 78.3613 49.1992 78.3613 48.7773V48.7656C78.3613 48.3438 78.3047 47.9844 78.1914 47.6875C78.0781 47.3867 77.9141 47.1562 77.6992 46.9961C77.4883 46.832 77.2324 46.75 76.9316 46.75C76.6309 46.75 76.373 46.832 76.1582 46.9961C75.9473 47.1562 75.7852 47.3867 75.6719 47.6875C75.5586 47.9844 75.502 48.3438 75.502 48.7656V48.7773C75.502 49.2031 75.5566 49.5664 75.666 49.8672C75.7793 50.168 75.9414 50.3984 76.1523 50.5586C76.3672 50.7148 76.627 50.793 76.9316 50.793ZM84.3555 54.2676C83.7578 54.2676 83.2461 54.1895 82.8203 54.0332C82.3984 53.8809 82.0664 53.6641 81.8242 53.3828C81.582 53.1055 81.4375 52.7852 81.3906 52.4219V52.3926H83.084L83.0898 52.416C83.1367 52.6035 83.2695 52.7559 83.4883 52.873C83.7109 52.9902 84.0117 53.0488 84.3906 53.0488C84.8477 53.0488 85.2031 52.9453 85.457 52.7383C85.7109 52.5352 85.8379 52.2461 85.8379 51.8711V50.6699H85.7324C85.6152 50.8965 85.4609 51.0879 85.2695 51.2441C85.082 51.4004 84.8633 51.5195 84.6133 51.6016C84.3672 51.6797 84.0957 51.7188 83.7988 51.7188C83.2598 51.7188 82.793 51.5898 82.3984 51.332C82.0078 51.0703 81.7051 50.707 81.4902 50.2422C81.2793 49.7773 81.1738 49.2402 81.1738 48.6309V48.6191C81.1738 47.9863 81.2793 47.4316 81.4902 46.9551C81.7051 46.4785 82.0098 46.1074 82.4043 45.8418C82.8027 45.5762 83.2773 45.4434 83.8281 45.4434C84.125 45.4434 84.3965 45.4902 84.6426 45.584C84.8926 45.6777 85.1113 45.8105 85.2988 45.9824C85.4863 46.1543 85.6367 46.3613 85.75 46.6035H85.832V45.5488H87.543V51.8008C87.543 52.3047 87.4121 52.7402 87.1504 53.1074C86.8926 53.4785 86.5254 53.7637 86.0488 53.9629C85.5723 54.166 85.0078 54.2676 84.3555 54.2676ZM84.3789 50.4062C84.6875 50.4062 84.9512 50.332 85.1699 50.1836C85.3887 50.0312 85.5566 49.8223 85.6738 49.5566C85.7949 49.291 85.8555 48.9805 85.8555 48.625V48.6133C85.8555 48.2617 85.7949 47.9512 85.6738 47.6816C85.5566 47.4121 85.3887 47.2031 85.1699 47.0547C84.9512 46.9062 84.6875 46.832 84.3789 46.832C84.0703 46.832 83.8086 46.9062 83.5938 47.0547C83.3789 47.2031 83.2129 47.4121 83.0957 47.6816C82.9824 47.9473 82.9258 48.2578 82.9258 48.6133V48.625C82.9258 48.9766 82.9824 49.2871 83.0957 49.5566C83.2129 49.8223 83.3789 50.0312 83.5938 50.1836C83.8086 50.332 84.0703 50.4062 84.3789 50.4062Z" fill="#172B4D"/>
<rect x="202" y="42" width="12" height="12" fill="#F1F2F4"/>
<rect x="222" y="42" width="12" height="12" fill="#F1F2F4"/>
<rect x="242" y="42" width="12" height="12" fill="#F1F2F4"/>
<path d="M272.329 50.6732C273.518 49.8594 277.514 45.1691 273.69 46.2699C272.663 47.089 267.951 53.4017 265.364 56.6572C264.795 55.3216 263.162 53.8608 261.968 53.12C261.242 52.447 260.95 53.5583 260.95 53.5583C261.154 53.8557 261.368 54.3252 261.863 54.7008C262.416 55.1182 262.489 55.9842 263.397 56.6467C266.59 58.9683 265.15 62.3855 268.238 56.4641C269.303 53.866 271.974 53.0209 272.323 50.6732H272.329Z" fill="#101214"/>
<path d="M292.509 50.4806C292.535 43.7349 291.434 33.1547 284.099 30.6557C289.185 37.4692 292.269 48.4459 289.436 56.8923C286.812 70.2741 266.554 77.7814 254.346 70.0289C255.598 71.2184 258.462 72.5696 260.22 73.0914C255.556 74.1035 245.07 62.3233 252.494 68.7351C231.427 41.8202 264.78 16.0793 283.979 39.3265C278.532 28.7828 264.389 25.1778 255.676 30.3062C213.7 63.5493 286.186 102.917 292.503 50.4806H292.509Z" fill="#101214"/>
</svg>
