<svg width="294" height="224" viewBox="0 0 294 224" fill="none" xmlns="http://www.w3.org/2000/svg">
<g clip-path="url(#clip0_1151_28817)">
<rect x="126" width="168" height="224" fill="white"/>
<rect x="2.56738" y="20.1299" width="162.33" height="201.935" transform="rotate(-3 2.56738 20.1299)" fill="#82B536"/>
<g style="mix-blend-mode:multiply">
<rect x="126" width="168" height="224" fill="#1868DB"/>
</g>
<rect width="246" height="176" transform="translate(24 24)" fill="white"/>
<rect width="214" height="116" transform="translate(40 64)" fill="#F1F2F4"/>
<rect width="206" height="24" transform="translate(44 68)" fill="white"/>
<rect x="52" y="76" width="8" height="8" fill="#1868DB"/>
<path d="M119.996 79.8335C111.724 81.3063 105.621 77.5378 97.2671 80.6291C96.8772 79.3051 95.8689 77.6471 94.3598 77.6228C95.6185 77.6531 97.6317 81.1119 95.609 78.7949C94.4201 77.0306 89.2237 79.1867 93.2058 77.6532C90.457 77.9781 87.9365 80.125 86.0786 82.0351C82.9874 84.756 85.3336 79.4904 83.0984 76.8424C79.9311 73.1619 70.3183 82.7336 72.2555 82.7396C73.4888 81.5401 75.1438 80.7931 75.8286 79.463C87.8858 71.5889 79.1861 86.162 86.3671 83.7205C98.0978 73.5992 92.169 82.7609 99.0552 82.1353C103.069 78.467 120.136 84.2185 119.999 79.8335H119.996Z" fill="#172B4D"/>
<rect x="132" y="76" width="75" height="8" fill="#1868DB"/>
<rect width="206" height="24" transform="translate(44 96)" fill="white"/>
<rect x="52" y="104" width="8" height="8" fill="#FCA700"/>
<rect x="72" y="106" width="24" height="4" fill="#DCDFE4"/>
<rect width="206" height="24" transform="translate(44 124)" fill="white"/>
<rect x="52" y="132" width="8" height="8" fill="#BF63F3"/>
<rect x="72" y="134" width="24" height="4" fill="#DCDFE4"/>
<rect width="206" height="24" transform="translate(44 152)" fill="white"/>
<rect x="52" y="160" width="8" height="8" fill="#DCDFE4"/>
<rect x="72" y="162" width="24" height="4" fill="#DCDFE4"/>
<path d="M41.9102 49.334V47.9512H44.0781C44.5859 47.9512 44.9805 47.8223 45.2617 47.5645C45.5469 47.3027 45.6895 46.9316 45.6895 46.4512V46.4395C45.6895 45.959 45.5469 45.5898 45.2617 45.332C44.9805 45.0742 44.5859 44.9453 44.0781 44.9453H41.9102V43.5449H44.5117C45.1055 43.5449 45.625 43.666 46.0703 43.9082C46.5156 44.1465 46.8613 44.4824 47.1074 44.916C47.3574 45.3496 47.4824 45.8555 47.4824 46.4336V46.4453C47.4824 47.0273 47.3574 47.5352 47.1074 47.9688C46.8613 48.4023 46.5156 48.7383 46.0703 48.9766C45.625 49.2148 45.1055 49.334 44.5117 49.334H41.9102ZM41.0254 52V43.5449H42.7949V52H41.0254ZM49 52V43.082H50.7109V52H49ZM54.2383 52.0996C53.832 52.0996 53.4688 52.0215 53.1484 51.8652C52.832 51.7051 52.584 51.4805 52.4043 51.1914C52.2246 50.8984 52.1348 50.5566 52.1348 50.166V50.1543C52.1348 49.7676 52.2305 49.4355 52.4219 49.1582C52.6172 48.8809 52.9004 48.6641 53.2715 48.5078C53.6465 48.3477 54.1016 48.252 54.6367 48.2207L57.0391 48.0742V49.1172L54.8945 49.2578C54.5273 49.2773 54.2539 49.3555 54.0742 49.4922C53.8945 49.6289 53.8047 49.8145 53.8047 50.0488V50.0605C53.8047 50.3066 53.8984 50.5 54.0859 50.6406C54.2734 50.7812 54.5156 50.8516 54.8125 50.8516C55.0781 50.8516 55.3145 50.7988 55.5215 50.6934C55.7285 50.5879 55.8926 50.4453 56.0137 50.2656C56.1348 50.082 56.1953 49.877 56.1953 49.6504V47.5938C56.1953 47.3125 56.1016 47.0977 55.9141 46.9492C55.7305 46.7969 55.4629 46.7207 55.1113 46.7207C54.8027 46.7207 54.5508 46.7734 54.3555 46.8789C54.1641 46.9805 54.0352 47.127 53.9688 47.3184L53.957 47.3418H52.375L52.3809 47.2891C52.4277 46.9102 52.5703 46.5801 52.8086 46.2988C53.0508 46.0176 53.375 45.7988 53.7812 45.6426C54.1914 45.4863 54.666 45.4082 55.2051 45.4082C55.7754 45.4082 56.2598 45.4961 56.6582 45.6719C57.0566 45.8438 57.3594 46.0938 57.5664 46.4219C57.7773 46.7461 57.8828 47.1367 57.8828 47.5938V52H56.1953V51.1445H56.0898C55.9805 51.3438 55.834 51.5156 55.6504 51.6602C55.4707 51.8008 55.2598 51.9102 55.0176 51.9883C54.7793 52.0625 54.5195 52.0996 54.2383 52.0996ZM59.5586 52V45.5488H61.2695V46.5449H61.375C61.5234 46.1934 61.7539 45.916 62.0664 45.7129C62.3789 45.5098 62.7656 45.4082 63.2266 45.4082C63.9453 45.4082 64.4922 45.6191 64.8672 46.041C65.2461 46.459 65.4355 47.0547 65.4355 47.8281V52H63.7246V48.2148C63.7246 47.7578 63.6289 47.4121 63.4375 47.1777C63.2461 46.9434 62.9473 46.8262 62.541 46.8262C62.2793 46.8262 62.0527 46.8867 61.8613 47.0078C61.6738 47.125 61.5273 47.291 61.4219 47.5059C61.3203 47.7207 61.2695 47.9746 61.2695 48.2676V52H59.5586Z" fill="#172B4D"/>
<rect x="202" y="42" width="12" height="12" fill="#F1F2F4"/>
<rect x="222" y="42" width="12" height="12" fill="#F1F2F4"/>
<rect x="242" y="42" width="12" height="12" fill="#F1F2F4"/>
<rect width="132" height="120" transform="translate(146 88)" fill="#DCDFE4"/>
<rect x="154" y="96" width="8" height="8" fill="#1868DB"/>
<g clip-path="url(#clip1_1151_28817)">
<rect x="154" y="112" width="32" height="8" fill="#B3B9C4"/>
<rect width="56" height="36" transform="translate(154 124)" fill="white"/>
<rect x="162" y="134" width="24" height="4" fill="#DCDFE4"/>
<rect x="162" y="144" width="8" height="8" fill="#1868DB"/>
<rect width="56" height="36" transform="translate(154 164)" fill="white"/>
<rect x="162" y="174" width="24" height="4" fill="#DCDFE4"/>
<rect x="162" y="184" width="8" height="8" fill="#1868DB"/>
</g>
<g clip-path="url(#clip2_1151_28817)">
<rect x="214" y="112" width="32" height="8" fill="#B3B9C4"/>
<rect width="56" height="36" transform="translate(214 124)" fill="white"/>
<rect x="222" y="134" width="24" height="4" fill="#DCDFE4"/>
<rect x="222" y="144" width="8" height="8" fill="#1868DB"/>
<rect width="56" height="36" transform="translate(214 164)" fill="white"/>
<rect x="222" y="174" width="24" height="4" fill="#DCDFE4"/>
<rect x="222" y="184" width="8" height="8" fill="#1868DB"/>
</g>
<path d="M221.515 76.3872C220.397 77.3575 219.351 78.5436 218.178 79.6483L218.693 79.5946C219.036 79.5653 219.379 79.5166 219.725 79.4607L219.999 79.4184L220.274 79.4026L220.832 79.3785C221.02 79.3761 221.208 79.364 221.394 79.3833C221.582 79.405 221.77 79.4364 221.958 79.4726C221.923 79.5687 221.958 79.6536 222.011 79.6109L222.018 79.4855C222.258 79.5948 222.482 79.6338 222.691 79.6969C222.898 79.7575 223.095 79.7986 223.292 79.8446C223.487 79.893 223.682 79.9365 223.864 80.0306C224.047 80.1295 224.224 80.2621 224.395 80.4477C224.395 80.4477 224.359 80.259 224.359 80.2542C225.811 80.869 227.393 81.8863 228.674 83.2495C229.972 84.5961 230.921 86.2738 231.436 87.8492L231.412 87.8393L231.398 87.8535C231.341 87.7949 231.258 87.6659 231.158 87.515C231.052 87.3664 230.928 87.191 230.815 87.0254C230.703 86.8574 230.597 86.6992 230.519 86.5799C230.438 86.463 230.381 86.3947 230.381 86.3947C230.389 86.6965 230.419 86.9865 230.522 87.2485C230.618 87.5128 230.762 87.7585 230.894 88.016C231.033 88.2712 231.194 88.5243 231.333 88.7843C231.457 89.049 231.574 89.3208 231.648 89.5969L231.801 89.5482C231.652 89.0684 231.612 88.6166 231.6 88.4281C231.993 89.2466 232.446 90.5727 232.554 91.9498C232.686 93.3224 232.521 94.7033 232.247 95.5469C232.132 95.4827 232.474 94.9826 232.097 94.7967C232.032 95.2327 231.929 95.661 231.823 96.0603C232.078 96.1167 232.048 95.8605 232.104 95.825C232.117 95.9217 232.081 96.2326 232.005 96.7023C231.973 96.9384 231.881 97.2003 231.8 97.4985C231.754 97.6476 231.711 97.8039 231.661 97.9674C231.603 98.1283 231.531 98.2891 231.461 98.462C231.319 98.8005 231.177 99.1679 230.96 99.5175C230.758 99.8721 230.557 100.248 230.285 100.59C230.155 100.765 230.025 100.939 229.892 101.116C229.762 101.295 229.596 101.443 229.449 101.605C229.295 101.765 229.145 101.925 228.994 102.082C228.837 102.234 228.662 102.367 228.496 102.505C227.169 103.608 225.71 104.267 224.824 104.449C223.936 104.662 223.662 104.567 224.357 103.999L224.23 103.903C224.424 103.809 224.611 103.722 224.796 103.633C224.978 103.546 225.155 103.454 225.316 103.335C225.64 103.101 225.976 102.873 226.278 102.527C226.392 102.478 226.39 102.447 226.461 102.563C226.499 102.564 226.567 102.565 226.583 102.62C226.743 102.902 226.913 102.637 227.023 102.578C226.847 102.387 226.9 102.192 227.076 102.006C227.25 101.813 227.518 101.59 227.837 101.394C227.917 101.344 227.998 101.294 228.083 101.245C228.158 101.19 228.236 101.133 228.309 101.076C228.465 100.967 228.611 100.863 228.745 100.766C229.025 100.583 229.216 100.402 229.268 100.319C229.101 100.138 229.209 99.9849 229.358 99.8396C229.507 99.6942 229.702 99.5471 229.668 99.3898C229.644 99.3943 229.504 99.4215 229.479 99.4212C229.442 99.3338 229.563 99.1206 229.755 98.8576C229.846 98.7212 229.975 98.5852 230.072 98.4199C230.175 98.2572 230.281 98.0919 230.382 97.9315C230.601 97.6182 230.735 97.3013 230.788 97.1258C230.841 96.9455 230.794 96.9014 230.576 97.0797C230.587 96.8216 230.643 96.5713 230.652 96.2962C230.667 96.0237 230.693 95.7464 230.728 95.4645C230.75 94.8904 230.803 94.2901 230.789 93.66C230.789 92.4025 230.659 91.0372 230.312 89.698C229.967 88.3612 229.402 87.0579 228.658 85.9815C228.461 85.7207 228.286 85.4481 228.072 85.2185C227.858 84.9889 227.651 84.7617 227.436 84.5562C227.207 84.365 226.98 84.1859 226.76 84.0189C226.538 83.8544 226.288 83.7353 226.065 83.6141L226.126 83.5884C226.09 83.5807 226.031 83.4954 225.97 83.5357C225.888 83.3198 225.626 83.0606 225.4 82.8284C225.285 82.7159 225.178 82.6107 225.094 82.5397C225.008 82.4758 224.956 82.4365 224.956 82.4365L224.502 82.0686L224.27 81.8846L224.024 81.7246C224.024 81.7246 223.901 81.6868 223.711 81.6288C223.521 81.566 223.259 81.4685 222.966 81.402C222.819 81.3639 222.67 81.3185 222.521 81.2684C222.372 81.2182 222.226 81.1607 222.079 81.1275C221.788 81.0441 221.524 80.9393 221.332 80.8065C221.077 80.7694 220.816 80.7998 220.56 80.7917C220.302 80.8004 220.046 80.773 219.79 80.818C219.432 80.8616 218.128 80.898 217.21 80.9634C217.747 81.8464 219.906 83.011 220.031 83.8574L221.087 84.4768C221.668 84.9308 221.228 86.4698 220.335 85.7246C218.803 84.3677 216.32 83.3413 215.477 81.1606L215.496 81.1657C215.496 81.1657 215.219 80.7494 215.19 80.807C215.109 80.538 215.121 80.1544 215.121 80.1544C215.398 79.236 216.866 78.2967 217.569 78.2358C217.377 78.1175 221.806 74.7497 221.512 76.3896L221.515 76.3872Z" fill="#101214"/>
</g>
<defs>
<clipPath id="clip0_1151_28817">
<rect width="294" height="224" fill="white"/>
</clipPath>
<clipPath id="clip1_1151_28817">
<rect width="56" height="88" fill="white" transform="translate(154 112)"/>
</clipPath>
<clipPath id="clip2_1151_28817">
<rect width="56" height="88" fill="white" transform="translate(214 112)"/>
</clipPath>
</defs>
</svg>
